<?xml version="1.0" encoding="UTF-8" standalone="no"?>
<svg
   xmlns:dc="http://purl.org/dc/elements/1.1/"
   xmlns:cc="http://creativecommons.org/ns#"
   xmlns:rdf="http://www.w3.org/1999/02/22-rdf-syntax-ns#"
   xmlns:svg="http://www.w3.org/2000/svg"
   xmlns="http://www.w3.org/2000/svg"
   xmlns:sodipodi="http://sodipodi.sourceforge.net/DTD/sodipodi-0.dtd"
   xmlns:inkscape="http://www.inkscape.org/namespaces/inkscape"
   width="239.99999999999997"
   height="98.17975069470033"
   viewBox="0 0 239.99999999999997 98.17975069470033"
   class="css-1j8o68f"
   version="1.1"
   id="svg15"
   sodipodi:docname="libservice.svg"
   inkscape:version="0.92.3 (2405546, 2018-03-11)">
  <metadata
     id="metadata19">
    <rdf:RDF>
      <cc:Work
         rdf:about="">
        <dc:format>image/svg+xml</dc:format>
        <dc:type
           rdf:resource="http://purl.org/dc/dcmitype/StillImage" />
        <dc:title></dc:title>
      </cc:Work>
    </rdf:RDF>
  </metadata>
  <sodipodi:namedview
     pagecolor="#ffffff"
     bordercolor="#666666"
     borderopacity="1"
     objecttolerance="10"
     gridtolerance="10"
     guidetolerance="10"
     inkscape:pageopacity="0"
     inkscape:pageshadow="2"
     inkscape:window-width="2560"
     inkscape:window-height="1329"
     id="namedview17"
     showgrid="false"
     inkscape:zoom="3.399422"
     inkscape:cx="76.487616"
     inkscape:cy="61.277669"
     inkscape:window-x="0"
     inkscape:window-y="55"
     inkscape:window-maximized="1"
     inkscape:current-layer="svg15" />
  <defs
     id="SvgjsDefs1220" />
  <rect
     style="fill:#f9f9f9"
     id="rect29"
     width="240.45718"
     height="240.45718"
     x="0.60739326"
     y="-78.626999"
     inkscape:export-filename="/home/ransomware/Desktop/libservice.png"
     inkscape:export-xdpi="409"
     inkscape:export-ydpi="409" />
  <g
     id="g57"
     transform="matrix(0.7278563,0,0,0.7278563,33.493223,5.8712175)"
     inkscape:export-filename="/home/ransomware/Desktop/libservice.png"
     inkscape:export-xdpi="409"
     inkscape:export-ydpi="409">
    <g
       font-size="16"
       transform="matrix(0.96954203,0,0,-0.96954203,84.32007,-10.697406)"
       id="g9"
       style="font-size:16px;font-family:'Times New Roman';fill:none;stroke:#000000">
      <g
         transform="translate(0,-75)"
         id="g7">
        <g
           id="g5">
          <path
             d="m 52.501,14.808 -0.586,0.349 -2.728,-0.059 c -2.116,0.013 -4.234,0.106 -6.351,0.246 l -3.956,0.287 -0.099,-0.03 -0.249,0.099 -1.886,0.156 -0.439,-0.009 c -0.528,-0.012 -1.058,-0.021 -1.585,-0.038 -1.188,-0.043 -2.384,-0.063 -3.573,-0.084 -0.58,-0.01 -1.161,-0.028 -1.741,-0.024 -1.442,0.013 -2.885,0.006 -4.326,0.04 l -1.151,0.039 0.798,-0.531 c -0.09,-0.019 -0.451,0.132 -0.552,0.175 l -0.637,0.369 -2.71,0.092 -0.658,0.023 -2.139,0.171 -0.083,-0.054 c -0.052,-0.01 -0.11,0 -0.157,0.032 l -0.072,0.048 -1.965,0.158 -0.509,0.073 -0.895,0.082 -1.237,0.191 1.671,-0.378 -1.65,0.371 0.7,-0.288 c 0.772,-0.274 1.516,-0.482 2.308,-0.683 0.341,-0.087 0.714,-0.164 1.062,-0.22 l -0.011,-0.062 c -0.406,0.064 -0.836,0.155 -1.235,0.254 -0.397,0.097 -0.795,0.188 -1.189,0.301 -0.474,0.137 -0.941,0.281 -1.41,0.44 l -0.57,0.216 -0.843,0.241 -0.062,0.015 -0.534,0.099 -0.113,0.026 0.109,0.008 -0.799,0.206 0.045,-0.105 -0.099,-0.032 c -0.778,0.393 -1.513,0.788 -2.252,1.256 -2.47,1.562 -4.668,3.73 -6.011,6.345 -0.494,0.962 -0.897,1.977 -1.115,3.04 -0.211,1.023 -0.336,2.057 -0.313,3.103 0.015,0.66 0.066,1.321 0.162,1.975 L 1.265,34.518 1.2,34.457 1.115,34.545 c 0.017,0.447 0.047,0.83 0.153,1.267 0.216,0.893 0.662,1.64 1.307,2.232 l 0.313,0.631 0.201,0.303 -0.026,0.206 0.915,1.124 0.077,0.117 c 0.44,0.556 0.931,1.072 1.476,1.498 l 0.18,0.121 0.677,0.545 0.815,0.496 1.109,0.77 c 0.183,0.117 0.375,0.221 0.554,0.341 L 8.041,43.455 8.464,43.63 c 0.39,0.116 0.796,0.172 1.241,0.131 0.073,0.008 0.139,-0.045 0.147,-0.118 C 9.86,43.57 9.808,43.503 9.734,43.496 9.368,43.383 9.004,43.29 8.645,43.184 L 8.198,43.02 8.323,42.867 C 8.373,42.698 8.276,42.518 8.106,42.469 7.941,42.402 7.771,42.353 7.607,42.279 L 7.509,42.228 8.301,42.53 c 0.316,0.093 0.631,0.19 0.952,0.268 l 1.027,0.192 -0.069,1.124 c -0.013,2.09 0.329,4.172 1.072,6.136 0.337,0.889 0.78,1.759 1.254,2.584 0.284,0.493 0.605,1.013 0.941,1.472 0.148,0.203 0.298,0.405 0.446,0.608 0.233,0.318 0.504,0.658 0.769,0.951 0.308,0.341 0.599,0.686 0.924,1.014 0.93,0.942 1.9,1.806 2.973,2.585 4.845,3.518 11.026,5.371 16.973,4.103 0.913,-0.196 1.878,-0.486 2.738,-0.849 l 0.265,-0.114 c 0.22,-0.095 0.469,-0.198 0.678,-0.313 0.251,-0.137 0.52,-0.259 0.774,-0.395 0.534,-0.286 1.046,-0.596 1.561,-0.917 0.794,-0.496 1.56,-1.038 2.303,-1.607 0.71,-0.544 1.419,-1.129 2.067,-1.744 0.657,-0.624 1.291,-1.257 1.861,-1.963 0.144,-0.178 0.305,-0.367 0.432,-0.556 0.138,-0.205 0.28,-0.405 0.416,-0.612 l 0.17,-0.298 0.312,-0.316 c 0.143,-0.167 0.273,-0.346 0.404,-0.523 v -0.159 h -0.157 l -0.294,0.227 -0.229,-0.298 -0.084,-0.011 0.14,-0.321 0.149,-0.615 0.843,0.146 c 0.699,0.084 1.413,0.099 2.111,0.061 l 1.937,-0.242 0.119,-0.02 1.29,-0.222 c 0.186,-0.046 0.369,-0.11 0.553,-0.167 0.458,-0.14 0.868,-0.34 1.293,-0.553 0.155,-0.078 0.342,-0.183 0.486,-0.282 0.137,-0.094 0.275,-0.189 0.413,-0.282 0.122,-0.082 0.243,-0.198 0.355,-0.293 l 0.288,-0.292 0.722,-0.622 c 0.186,-0.185 0.418,-0.42 0.568,-0.633 0.078,-0.112 0.168,-0.219 0.248,-0.331 0.243,-0.344 0.47,-0.775 0.627,-1.165 0.042,-0.104 0.072,-0.213 0.113,-0.316 0.079,-0.201 0.122,-0.448 0.17,-0.658 l 0.018,-0.141 0.157,-0.121 c 0.201,-0.152 0.412,-0.319 0.585,-0.502 0.152,-0.161 0.275,-0.333 0.418,-0.5 -0.273,0.148 -0.577,0.316 -0.825,0.496 l -0.282,0.219 0.035,-0.272 0.019,-0.597 0.144,-0.611 0.049,-0.839 0.326,0.034 c 0.337,0.014 0.676,0.007 0.995,-0.017 0.372,-0.028 0.71,-0.085 1.076,-0.153 0.127,-0.025 0.282,-0.051 0.404,-0.089 0.167,-0.055 0.345,-0.089 0.512,-0.144 0.832,-0.27 1.74,-0.684 2.459,-1.182 0.103,-0.072 0.21,-0.135 0.312,-0.21 0.466,-0.345 0.964,-0.777 1.361,-1.197 0.254,-0.268 0.506,-0.526 0.745,-0.808 0.898,-1.061 1.683,-2.318 2.226,-3.598 0.235,-0.555 0.434,-1.118 0.614,-1.681 0.037,-0.184 0.097,-0.372 0.137,-0.557 0.13,-0.581 0.206,-1.25 0.21,-1.845 0.012,-1.617 -0.312,-3.217 -0.854,-4.736 l -0.534,-1.305 c 0.019,-0.085 0.005,-0.177 -0.044,-0.255 L 70.461,23.997 70.04,23.231 c -0.296,-0.452 -0.607,-0.89 -0.939,-1.31 l -0.63,-0.724 0.142,-0.11 c 0.095,-0.069 0.114,-0.204 0.045,-0.298 -0.069,-0.095 -0.204,-0.114 -0.299,-0.045 l -0.166,0.137 -0.142,-0.164 -1.028,-0.952 0.351,-0.227 0.019,-0.064 -0.064,-0.019 -0.434,0.192 c -0.426,-0.354 -0.857,-0.672 -1.309,-0.965 l -0.176,-0.104 0.029,-0.124 -0.124,-0.026 -0.099,0.05 -0.902,-0.61 C 64.169,17.784 64.025,17.688 63.883,17.599 63.522,17.371 63.107,17.161 62.724,16.97 61.529,16.375 60.198,15.977 58.865,15.89 L 57.847,15.914 57.191,15.757 57.107,15.57 C 57.046,15.502 56.961,15.459 56.865,15.454 L 55.007,15.359 52.539,15.19 52.674,15.1 c 0.081,-0.047 0.107,-0.152 0.06,-0.233 -0.048,-0.079 -0.153,-0.107 -0.233,-0.059 z m -7.674,1.156 -3.697,0.418 -3.161,0.028 0.21,-0.146 2.809,-0.118 0.302,-0.024 3.129,-0.14 z m 9.448,0.106 2.546,0.1 -0.829,0.19 -0.637,-0.026 c -0.563,-0.023 -1.127,-0.045 -1.157,-0.046 -0.055,0 -2.243,0.012 -2.302,0.012 l -0.898,-0.012 0.253,-0.185 z m -3.674,0.053 -0.225,0.186 -1.886,0.013 0.192,-0.132 z m -26.291,0.012 1.587,0.052 -0.491,0.321 -2.698,0.02 0.418,-0.279 z m 2.13,0.047 0.973,0.023 c 0.959,0.033 1.921,0.081 2.88,0.095 l 0.46,0.013 -0.27,0.144 -0.186,0.019 -4.278,0.028 0.103,-0.065 z m 22.003,0.017 -0.21,0.124 -2.07,0.015 1.506,-0.111 z m -25.818,0.094 -0.318,0.237 -1.551,0.012 h -0.055 l 0.143,-0.097 0.576,-0.051 z m 14.876,0.005 -0.077,0.054 -0.083,0.064 -1.21,0.01 0.081,-0.043 z m -5.927,0.003 0.475,0.002 -0.625,0.061 z m -11.152,0.175 -0.116,0.067 -0.752,0.004 z m 37.398,0.136 1.331,0.327 1.323,0.387 -0.636,0.311 c -1.036,0.633 -1.957,1.507 -2.863,2.306 -0.407,0.358 -0.81,0.717 -1.231,1.058 -0.231,0.187 -0.469,0.388 -0.712,0.558 -0.288,0.203 -0.582,0.422 -0.885,0.601 -0.152,0.089 -0.303,0.174 -0.454,0.265 l -0.022,0.082 0.083,0.023 c 0.493,-0.304 1.008,-0.587 1.468,-0.944 0.261,-0.203 0.529,-0.399 0.792,-0.602 0.428,-0.333 0.839,-0.689 1.259,-1.031 0.399,-0.325 0.8,-0.646 1.198,-0.971 0.116,-0.095 0.241,-0.184 0.361,-0.274 l 1.86,-1.318 0.536,0.159 1.269,0.601 -0.295,0.143 c -0.272,0.151 -0.542,0.304 -0.805,0.471 -0.251,0.156 -0.489,0.333 -0.729,0.505 -0.42,0.301 -0.807,0.635 -1.211,0.956 -0.531,0.425 -1.06,0.909 -1.561,1.369 -0.731,0.67 -1.479,1.323 -2.212,2 l -0.248,0.235 c -1.147,1.11 -2.234,2.265 -3.301,3.451 l 0.003,0.051 0.052,-0.003 c 1.044,-1.173 2.141,-2.285 3.288,-3.358 0.5,-0.47 1.015,-0.933 1.544,-1.371 0.511,-0.422 1.011,-0.855 1.541,-1.255 0.197,-0.15 0.395,-0.296 0.591,-0.446 0.172,-0.129 0.347,-0.248 0.511,-0.385 0.108,-0.091 0.206,-0.206 0.305,-0.306 l -0.16,0.074 0.946,-0.696 c 0.554,-0.368 1.138,-0.721 1.722,-1.038 l 0.405,-0.213 0.192,0.091 1.076,0.664 -0.389,0.259 c -0.482,0.318 -0.975,0.663 -1.427,1.021 -0.395,0.312 -0.797,0.613 -1.186,0.932 -1.057,0.871 -2.03,1.805 -2.947,2.822 l 0.006,0.122 0.123,-0.005 c 0.913,-1.036 1.94,-1.938 3.028,-2.786 0.338,-0.264 0.692,-0.508 1.04,-0.759 0.498,-0.359 1.015,-0.692 1.526,-1.033 l 0.529,-0.387 1.325,0.817 0.143,0.098 -0.596,0.332 c -1.214,0.754 -2.354,1.687 -3.331,2.687 -0.33,0.338 -0.665,0.68 -0.972,1.04 l 0.009,0.156 0.156,-0.009 c 0.8,-0.933 1.707,-1.76 2.677,-2.512 0.283,-0.221 0.579,-0.42 0.871,-0.628 l 1.406,-0.918 0.289,0.195 0.065,0.043 0.136,0.122 c 0.188,0.181 0.385,0.381 0.56,0.576 l 0.223,0.258 -0.195,0.163 c -1.095,0.998 -2.075,2.123 -3.072,3.219 -0.505,0.557 -1.027,1.072 -1.565,1.593 l -0.004,0.17 0.17,0.005 c 1.142,-1.076 2.185,-2.245 3.286,-3.363 0.391,-0.396 0.803,-0.801 1.234,-1.181 l 0.398,-0.312 0.252,0.29 0.429,0.568 -0.089,0.221 c 0,0.095 0.037,0.19 0.109,0.261 l 0.439,0.484 -0.137,-0.007 c -0.444,0.393 -0.872,0.802 -1.309,1.202 -0.247,0.228 -0.495,0.453 -0.739,0.683 -1.057,1.002 -2.111,2.007 -3.032,3.136 l 0.011,0.131 0.13,-0.012 c 1.524,-1.844 3.368,-3.323 5.14,-4.915 l 0.007,-0.138 0.186,0.204 0.715,1.031 0.112,0.22 -0.381,0.406 c -0.501,0.523 -1.024,1.026 -1.539,1.535 -1.039,1.025 -2.126,2.005 -3.122,3.073 -0.047,0.049 -0.046,0.128 0.003,0.176 0.049,0.048 0.129,0.046 0.176,-0.003 1.27,-1.335 2.671,-2.564 4.032,-3.808 l 1.028,-0.996 0.505,0.984 0.336,0.992 c -0.068,-0.012 -0.118,0.004 -0.159,0.04 -0.302,0.258 -0.594,0.575 -0.864,0.866 -0.448,0.479 -0.875,0.984 -1.311,1.474 -0.499,0.558 -1.019,1.097 -1.595,1.574 -0.177,0.147 -0.373,0.268 -0.56,0.401 -0.049,0.033 -0.062,0.1 -0.029,0.149 0.031,0.049 0.099,0.061 0.147,0.029 0.299,-0.204 0.58,-0.402 0.856,-0.638 0.587,-0.505 1.111,-1.077 1.651,-1.631 0.478,-0.491 0.934,-0.992 1.431,-1.462 0.169,-0.16 0.35,-0.326 0.54,-0.486 l 0.14,0.478 c 0.078,0.348 0.144,0.698 0.19,1.066 l 0.023,0.473 -0.479,0.409 c -0.361,0.344 -0.695,0.723 -1.032,1.063 -0.253,0.257 -0.528,0.52 -0.818,0.731 -0.148,0.107 -0.303,0.195 -0.457,0.29 l -0.017,0.07 0.07,0.018 c 0.348,-0.215 0.649,-0.411 0.959,-0.682 0.439,-0.384 0.824,-0.783 1.235,-1.142 l 0.556,-0.432 0.054,1.042 c -0.009,0.47 -0.042,0.945 -0.098,1.418 l -0.237,1.278 c -0.1,0.099 -0.19,0.207 -0.278,0.309 -0.197,0.231 -0.398,0.465 -0.602,0.691 -0.087,0.095 -0.176,0.185 -0.265,0.272 l -0.215,0.207 -0.508,-0.51 h -0.119 v 0.119 c 0.147,0.151 0.3,0.309 0.453,0.456 0.052,0.05 0.117,0.158 0.2,0.132 l 0.194,-0.17 c 0.154,-0.131 0.309,-0.291 0.45,-0.437 l 0.593,-0.583 -0.277,1.008 c -0.148,0.442 -0.317,0.87 -0.508,1.278 -0.204,0.437 -0.425,0.869 -0.681,1.278 -0.174,0.278 -0.358,0.532 -0.542,0.802 -0.167,0.244 -0.371,0.486 -0.566,0.708 -0.315,0.359 -0.673,0.73 -1.039,1.036 -0.616,0.514 -1.275,0.964 -2.002,1.303 -0.271,0.127 -0.556,0.258 -0.841,0.35 -0.321,0.105 -0.631,0.204 -0.962,0.284 -0.122,0.028 -0.253,0.042 -0.375,0.073 -0.105,0.028 -0.229,0.04 -0.337,0.054 -0.327,0.048 -0.64,0.076 -0.971,0.09 L 61.418,42.665 61.359,42.542 C 61.3,42.47 61.224,42.41 61.142,42.382 l -0.177,-0.03 -0.178,0.029 c -0.084,0.023 -0.233,0.152 -0.276,0.235 l -0.192,-0.002 -1.003,-0.199 -0.41,-0.128 0.818,-0.621 c 0.509,-0.364 1.069,-0.696 1.601,-1.028 0.074,-0.042 0.099,-0.138 0.056,-0.211 -0.043,-0.073 -0.138,-0.099 -0.211,-0.056 -0.85,0.428 -1.679,1.042 -2.422,1.636 l -0.158,0.136 -0.914,-0.439 -0.137,-0.013 1.358,-1.037 c 0.496,-0.374 0.981,-0.756 1.471,-1.139 0.079,-0.064 0.093,-0.181 0.03,-0.26 -0.064,-0.079 -0.181,-0.092 -0.26,-0.03 -0.245,0.192 -0.482,0.389 -0.723,0.586 -0.663,0.542 -1.34,1.074 -2.008,1.609 -0.492,0.394 -0.982,0.808 -1.449,1.231 -0.567,0.513 -1.114,1.026 -1.613,1.609 l 0.01,0.166 0.166,-0.01 c 0.491,-0.578 1.047,-1.098 1.621,-1.594 0.168,-0.146 0.34,-0.3 0.514,-0.438 0.17,-0.134 0.344,-0.271 0.511,-0.409 l 0.164,-0.126 -0.015,0.148 c 0.019,0.061 0.06,0.116 0.122,0.15 l 0.722,0.368 -0.645,0.558 c -0.396,0.369 -0.776,0.755 -1.142,1.16 -0.254,0.28 -0.53,0.578 -0.756,0.879 -0.043,0.051 -0.036,0.129 0.015,0.173 0.052,0.043 0.131,0.036 0.174,-0.016 0.349,-0.462 0.783,-0.903 1.184,-1.321 0.412,-0.429 0.854,-0.827 1.314,-1.204 l 0.133,-0.102 0.777,0.312 c 0.286,0.094 0.57,0.196 0.865,0.262 l 0.281,0.056 -0.007,0.058 -0.018,0.32 -1.271,1.04 c -0.333,0.289 -0.671,0.571 -1.003,0.86 -0.431,0.374 -0.846,0.742 -1.3,1.091 -0.06,0.046 -0.073,0.135 -0.026,0.196 0.047,0.06 0.135,0.073 0.196,0.026 0.366,-0.297 0.766,-0.568 1.14,-0.857 0.301,-0.232 0.591,-0.502 0.882,-0.749 l 1.162,-0.943 -0.035,1.105 -0.051,0.276 -0.347,0.621 c -0.185,0.263 -0.351,0.53 -0.561,0.777 -0.214,0.254 -0.428,0.497 -0.658,0.738 -0.201,0.211 -0.438,0.419 -0.658,0.608 -0.531,0.46 -1.076,0.847 -1.674,1.212 -0.554,0.339 -1.248,0.695 -1.862,0.9 -0.287,0.096 -0.588,0.211 -0.882,0.28 -0.151,0.036 -0.307,0.069 -0.459,0.102 -0.153,0.033 -0.358,0.065 -0.514,0.081 -0.06,0.004 -0.126,0.006 -0.183,0.015 -0.121,0.02 -0.287,0.021 -0.411,0.021 -0.525,0 -0.956,-0.05 -1.459,-0.205 -0.293,-0.089 -0.537,-0.264 -0.834,-0.312 -0.183,-0.113 -0.426,-0.054 -0.539,0.131 l -0.044,0.292 -1.469,-0.692 c -0.775,-0.451 -1.423,-0.96 -2.084,-1.56 -0.064,-0.06 -0.166,-0.055 -0.226,0.027 l -0.055,0.008 c -0.819,0.571 -1.52,1.289 -2.215,2.001 -0.175,0.179 -0.345,0.363 -0.513,0.548 -0.167,0.182 -0.345,0.365 -0.503,0.555 -0.182,0.22 -0.411,0.439 -0.576,0.67 l 0.011,0.13 0.131,-0.011 c 0.04,-0.057 0.094,-0.112 0.139,-0.167 0.114,-0.133 0.229,-0.274 0.351,-0.399 0.089,-0.092 0.176,-0.198 0.264,-0.293 0.249,-0.268 0.504,-0.534 0.764,-0.788 0.593,-0.579 1.191,-1.149 1.861,-1.637 l 0.465,-0.316 1.085,0.87 -0.14,-0.008 -0.171,0.155 -0.212,-0.226 c -0.106,-0.12 -0.29,-0.129 -0.41,-0.024 -0.12,0.105 -0.13,0.289 -0.025,0.409 l 0.227,0.222 -0.093,0.086 c -0.559,0.481 -1.134,0.94 -1.695,1.416 -0.921,0.781 -1.841,1.526 -2.631,2.443 -0.158,0.184 -0.323,0.375 -0.464,0.574 l 0.011,0.082 0.082,-0.011 c 0.3,-0.386 0.594,-0.728 0.937,-1.076 0.404,-0.411 0.863,-0.805 1.313,-1.165 0.571,-0.454 1.141,-0.899 1.723,-1.34 l 1.027,-0.803 0.239,0.234 0.443,0.292 -0.51,0.45 c -0.598,0.539 -1.18,1.109 -1.743,1.685 -1.064,1.085 -2.106,2.196 -3.113,3.334 l 0.006,0.119 0.119,-0.006 c 1.127,-1.275 2.317,-2.474 3.553,-3.643 0.466,-0.441 0.949,-0.859 1.438,-1.273 l 0.567,-0.457 0.091,0.061 c 0.299,0.163 0.612,0.304 0.935,0.423 l 0.432,0.127 -0.179,0.509 -0.262,0.509 -0.442,0.448 c -0.452,0.455 -0.97,0.903 -1.465,1.308 -0.203,0.167 -0.402,0.336 -0.604,0.503 -0.446,0.368 -0.913,0.72 -1.367,1.079 -1.183,0.935 -2.395,1.844 -3.462,2.911 0.977,-0.922 2.059,-1.754 3.135,-2.556 0.551,-0.411 1.096,-0.83 1.649,-1.236 0.202,-0.15 0.398,-0.31 0.598,-0.465 0.218,-0.168 0.442,-0.337 0.652,-0.516 0.298,-0.254 0.616,-0.498 0.911,-0.776 l -0.826,1.176 c -0.349,0.428 -0.724,0.836 -1.095,1.233 -0.327,0.347 -0.694,0.708 -1.053,1.022 -0.314,0.274 -0.623,0.561 -0.947,0.822 -1.168,0.939 -2.394,1.86 -3.708,2.587 -0.561,0.311 -1.124,0.615 -1.717,0.861 -0.295,0.122 -0.575,0.221 -0.876,0.324 l -0.371,0.099 -0.561,0.115 c -0.165,0.03 -0.335,0.054 -0.502,0.085 -0.307,0.055 -0.647,0.092 -0.959,0.122 -0.719,0.065 -1.453,0.126 -2.177,0.112 C 31.816,62.239 30.97,62.21 30.107,62.105 25.24,61.51 20.528,59.557 16.801,56.346 16.367,55.97 15.935,55.565 15.522,55.14 l -0.394,-0.451 -0.699,-0.86 C 13.489,52.522 12.708,51.102 12.143,49.62 11.769,48.637 11.455,47.693 11.254,46.657 11.148,46.118 11.075,45.585 11.029,45.05 l -0.038,-1.338 0.047,-0.666 0.084,-0.041 c 0.094,-0.069 0.163,-0.173 0.184,-0.297 0.019,-0.124 -0.013,-0.245 -0.08,-0.341 l -0.058,-0.035 0.03,-0.165 0.384,-0.309 c 0.254,-0.184 0.505,-0.369 0.759,-0.554 0.048,-0.035 0.058,-0.106 0.021,-0.154 -0.035,-0.05 -0.106,-0.06 -0.154,-0.023 l -0.951,0.715 0.057,-0.305 c 0.02,-0.095 -0.042,-0.192 -0.137,-0.212 -0.096,-0.021 -0.192,0.041 -0.213,0.136 l -0.069,0.311 -0.145,-0.077 c -0.205,-0.02 -0.389,0.129 -0.411,0.358 L 8.63,41.768 8.882,41.599 c 0.1,-0.077 0.202,-0.162 0.304,-0.234 0.099,-0.071 0.2,-0.167 0.295,-0.246 0.237,-0.197 0.463,-0.409 0.707,-0.598 0.337,-0.261 0.622,-0.44 1.002,-0.621 0.058,-0.027 0.08,-0.097 0.054,-0.154 -0.028,-0.058 -0.099,-0.082 -0.156,-0.054 -0.111,0.043 -0.225,0.12 -0.331,0.175 -0.382,0.195 -0.805,0.568 -1.12,0.854 -0.183,0.165 -0.377,0.342 -0.572,0.493 -0.087,0.069 -0.189,0.14 -0.27,0.211 -0.109,0.096 -0.281,0.192 -0.408,0.291 H 8.312 C 7.364,41.513 6.448,41.196 5.599,40.729 L 5.348,40.561 4.538,39.572 C 4.352,39.323 4.183,39.069 4.006,38.815 3.715,38.402 3.45,37.933 3.207,37.49 l -0.246,-0.5 0.298,0.433 0.114,0.034 0.032,-0.113 C 3.123,36.629 2.853,35.895 2.627,35.16 2.44,34.55 2.233,33.956 2.077,33.335 1.961,32.872 1.876,32.401 1.813,31.927 1.78,31.691 1.767,31.452 1.747,31.215 1.725,30.95 1.713,30.653 1.723,30.387 1.734,30.111 1.728,29.829 1.758,29.553 1.812,29.094 1.855,28.651 1.951,28.198 L 2.314,26.951 2.771,26.105 C 2.869,25.964 2.911,25.842 2.98,25.686 3.05,25.529 3.208,25.293 3.328,25.171 L 2.87,25.535 3.365,24.504 c 0.204,-0.35 0.422,-0.693 0.658,-1.023 0.188,-0.261 0.387,-0.51 0.583,-0.767 0.206,-0.269 0.441,-0.517 0.666,-0.769 0.232,-0.26 0.485,-0.515 0.734,-0.759 0.256,-0.248 0.529,-0.477 0.789,-0.719 l 1.459,-1.209 0.514,-0.296 c 0.167,-0.09 0.344,-0.167 0.512,-0.255 0.275,-0.146 0.603,-0.273 0.894,-0.388 0.384,-0.153 0.767,-0.299 1.162,-0.421 0.485,-0.152 0.961,-0.282 1.449,-0.419 0.364,-0.101 0.755,-0.172 1.124,-0.25 0.779,-0.165 1.585,-0.286 2.373,-0.385 l 0.342,-0.034 -1.749,1.418 c -0.547,0.455 -1.106,0.894 -1.665,1.334 l -0.018,0.135 0.134,0.018 c 0.547,-0.431 1.112,-0.859 1.674,-1.269 0.635,-0.461 1.264,-0.925 1.922,-1.352 l 0.423,-0.291 0.599,0.018 c 0.084,0.002 0.162,-0.031 0.218,-0.086 l 1.834,-0.006 -0.429,0.259 -0.858,0.568 -2.039,0.154 -0.077,0.089 0.088,0.077 1.734,-0.127 -0.567,0.375 c -0.37,0.269 -0.738,0.54 -1.088,0.835 -0.277,0.234 -0.532,0.481 -0.789,0.738 -0.22,0.221 -0.456,0.493 -0.629,0.752 l 0.013,0.097 0.098,-0.014 c 0.106,-0.158 0.246,-0.335 0.377,-0.474 0.117,-0.126 0.242,-0.254 0.356,-0.381 0.133,-0.147 0.316,-0.292 0.466,-0.428 0.363,-0.329 0.779,-0.627 1.178,-0.911 l 0.964,-0.616 0.219,-0.016 1.941,-0.152 -1.409,1.129 c -0.301,0.232 -0.607,0.458 -0.916,0.678 -0.238,0.169 -0.487,0.319 -0.727,0.485 l -0.027,0.128 0.128,0.027 c 0.144,-0.098 0.297,-0.188 0.441,-0.287 0.271,-0.187 0.543,-0.375 0.808,-0.571 l 2.106,-1.621 0.611,-0.048 2.331,-0.186 -3.164,2.542 c -0.051,0.043 -0.056,0.124 -0.012,0.174 0.044,0.051 0.124,0.057 0.175,0.013 0.505,-0.461 1.056,-0.908 1.596,-1.328 0.428,-0.334 0.857,-0.659 1.3,-0.972 0.153,-0.108 0.303,-0.221 0.46,-0.324 l 0.229,-0.151 2.367,-0.19 -3.137,2.355 c -0.415,0.297 -0.834,0.586 -1.261,0.867 -0.225,0.148 -0.462,0.279 -0.687,0.426 l -0.029,0.119 0.119,0.03 c 0.462,-0.288 0.917,-0.574 1.377,-0.869 0.343,-0.22 0.683,-0.457 1.019,-0.688 0.741,-0.51 1.473,-1.03 2.215,-1.539 L 27.917,17 29.723,16.864 c -1.021,0.628 -1.917,1.403 -2.824,2.162 -0.546,0.457 -1.099,0.946 -1.679,1.359 -0.139,0.098 -0.277,0.198 -0.416,0.298 -0.158,0.114 -0.332,0.217 -0.493,0.329 l -0.016,0.076 0.076,0.016 c 0.159,-0.11 0.325,-0.213 0.486,-0.321 0.444,-0.302 0.875,-0.632 1.298,-0.963 0.332,-0.26 0.654,-0.536 0.989,-0.794 0.228,-0.175 0.449,-0.359 0.675,-0.536 0.151,-0.119 0.307,-0.232 0.459,-0.351 0.272,-0.214 0.572,-0.406 0.859,-0.602 l 1.382,-0.745 0.65,-0.051 1.85,0.004 -0.31,0.157 -0.312,0.211 -0.794,0.031 c -0.291,0.009 -0.583,0.003 -0.875,0.01 l -0.071,0.072 0.071,0.071 1.43,-0.023 -1.932,1.315 c -0.465,0.356 -0.936,0.703 -1.393,1.068 -0.644,0.515 -1.307,1.01 -1.958,1.517 l 0.04,0.054 c 1.54,-1.183 3.092,-2.398 4.728,-3.444 l 0.928,-0.521 1.611,-0.073 -0.098,0.058 c -0.307,0.199 -0.624,0.4 -0.914,0.622 -0.47,0.36 -0.927,0.749 -1.383,1.128 -0.2,0.166 -0.397,0.344 -0.602,0.502 -0.268,0.208 -0.527,0.443 -0.802,0.643 -0.27,0.195 -0.545,0.403 -0.81,0.605 l 0.038,0.053 c 0.446,-0.34 0.908,-0.667 1.359,-1.003 1.163,-0.866 2.31,-1.748 3.544,-2.511 l 0.229,-0.123 1.011,-0.044 0.756,-0.051 -0.322,0.254 c -0.339,0.297 -0.665,0.608 -0.997,0.913 -0.375,0.345 -0.742,0.7 -1.118,1.042 -0.242,0.219 -0.48,0.453 -0.728,0.666 -0.159,0.138 -0.316,0.282 -0.477,0.417 -0.149,0.125 -0.303,0.246 -0.451,0.372 -0.492,0.413 -1.043,0.777 -1.578,1.131 l -0.016,0.077 0.077,0.015 c 0.194,-0.134 0.407,-0.252 0.596,-0.391 0.154,-0.112 0.317,-0.214 0.468,-0.329 0.343,-0.256 0.692,-0.51 1.022,-0.783 1.088,-0.895 2.146,-1.827 3.24,-2.715 0.17,-0.139 0.349,-0.27 0.518,-0.409 l 0.388,-0.303 0.072,-0.002 3.26,-0.262 h 0.302 l -0.588,0.447 c -0.674,0.524 -1.333,1.079 -1.996,1.619 -0.957,0.778 -1.942,1.53 -2.935,2.261 -0.522,0.385 -1.049,0.768 -1.585,1.134 -0.374,0.256 -0.754,0.506 -1.131,0.757 l -0.022,0.108 0.108,0.021 c 0.376,-0.255 0.758,-0.502 1.138,-0.751 0.35,-0.231 0.696,-0.478 1.043,-0.716 1.253,-0.859 2.498,-1.758 3.714,-2.667 0.678,-0.508 1.358,-1.009 2.019,-1.539 l 0.811,-0.672 2.442,0.005 -0.956,0.546 c -0.711,0.461 -1.396,0.96 -2.09,1.444 -0.895,0.621 -1.755,1.289 -2.607,1.965 -0.743,0.588 -1.491,1.212 -2.185,1.856 l -0.005,0.075 0.075,0.005 c 0.387,-0.359 0.804,-0.717 1.214,-1.048 0.93,-0.752 1.867,-1.465 2.851,-2.147 0.457,-0.316 0.922,-0.616 1.385,-0.923 0.771,-0.512 1.572,-0.978 2.35,-1.478 l 0.432,-0.294 3.223,0.006 -0.173,0.103 c -0.643,0.417 -1.287,0.846 -1.917,1.283 -0.703,0.489 -1.407,0.994 -2.122,1.467 -0.344,0.227 -0.684,0.46 -1.028,0.686 -0.343,0.225 -0.695,0.44 -1.039,0.662 -0.41,0.262 -0.841,0.504 -1.258,0.754 l -0.016,0.059 0.059,0.016 c 0.389,-0.237 0.789,-0.456 1.178,-0.693 0.341,-0.209 0.678,-0.424 1.022,-0.63 0.754,-0.453 1.486,-0.954 2.231,-1.423 0.736,-0.465 1.462,-0.953 2.184,-1.439 l 1.234,-0.844 2.009,0.004 -1.748,1.743 c -0.973,1.004 -1.932,2.056 -2.993,2.971 -0.374,0.323 -0.771,0.649 -1.173,0.934 -0.198,0.139 -0.411,0.268 -0.603,0.408 l -0.024,0.109 0.109,0.024 c 0.403,-0.272 0.785,-0.535 1.175,-0.831 0.291,-0.221 0.564,-0.465 0.846,-0.699 0.754,-0.631 1.465,-1.355 2.174,-2.038 0.733,-0.71 1.47,-1.44 2.239,-2.132 l 0.579,-0.488 0.326,0.001 c 0.415,-0.002 1.892,-0.003 2.307,-0.003 l 1.089,-0.001 -2.603,1.952 c -0.942,0.701 -1.915,1.414 -2.809,2.174 -0.329,0.279 -0.645,0.57 -0.965,0.857 -0.219,0.195 -0.467,0.395 -0.669,0.604 -0.165,0.17 -0.328,0.337 -0.497,0.504 l -0.002,0.064 0.065,0.002 c 0.193,-0.19 0.404,-0.347 0.606,-0.525 0.29,-0.255 0.57,-0.514 0.872,-0.755 0.409,-0.328 0.833,-0.637 1.244,-0.964 0.941,-0.752 1.916,-1.457 2.885,-2.171 l 2.356,-1.762 1.887,-0.086 z m -35.778,0.117 -0.819,0.613 -1.987,0.173 -0.133,0.01 0.795,-0.506 0.486,-0.29 z m 3.044,0 -0.429,0.297 -1.514,0.149 -1.505,0.131 0.64,-0.492 0.126,-0.085 z m 0.58,0 1.98,0.005 -2.34,0.229 0.183,-0.12 z m 7.832,0.017 1.434,0.003 -0.466,0.274 -0.212,0.014 -1.377,0.056 z m 2.023,0.004 1.391,0.003 -0.093,0.073 -1.116,0.111 -0.612,0.042 z m -21.779,0.239 -0.363,0.09 c -0.216,0.062 -0.436,0.116 -0.652,0.182 -0.55,0.17 -1.093,0.343 -1.628,0.536 l -1.426,0.59 0.145,-0.086 1.457,-0.803 1.532,-0.359 z m 43.523,0.326 c -0.243,0.113 -0.505,0.261 -0.734,0.402 -0.38,0.233 -0.749,0.461 -1.115,0.718 -1.054,0.738 -2.04,1.548 -3.052,2.346 -0.517,0.408 -1.052,0.84 -1.597,1.213 -0.131,0.088 -0.261,0.181 -0.39,0.272 -0.162,0.114 -0.338,0.215 -0.479,0.365 0.143,-0.086 0.296,-0.179 0.438,-0.269 0.186,-0.12 0.382,-0.258 0.563,-0.387 0.438,-0.315 0.872,-0.631 1.303,-0.956 1.814,-1.368 3.591,-2.766 5.701,-3.653 0.077,-0.034 0.112,-0.125 0.078,-0.203 -0.034,-0.077 -0.126,-0.112 -0.203,-0.078 -0.171,0.076 -0.343,0.151 -0.513,0.23 z M 10.197,17.293 10.138,17.416 9.646,17.664 9.535,17.69 9.453,17.7 Z m -0.971,0.575 -0.312,0.152 -0.23,0.144 -0.093,0.037 0.222,-0.15 0.338,-0.183 z m 49.1,6.922 c -0.341,0.296 -0.664,0.623 -0.99,0.934 -0.286,0.27 -0.558,0.553 -0.838,0.827 -0.35,0.344 -0.713,0.693 -1.051,1.048 -0.256,0.268 -0.504,0.543 -0.763,0.808 l 0.001,0.066 0.065,-10e-4 c 0.26,-0.276 0.548,-0.526 0.822,-0.789 0.292,-0.28 0.573,-0.575 0.867,-0.855 0.485,-0.463 0.979,-0.896 1.48,-1.339 0.414,-0.366 0.849,-0.729 1.285,-1.066 0.57,-0.442 1.146,-0.902 1.763,-1.278 0.303,-0.186 0.592,-0.398 0.899,-0.577 0.051,-0.028 0.068,-0.092 0.04,-0.142 -0.029,-0.049 -0.093,-0.067 -0.143,-0.04 -1.278,0.63 -2.364,1.48 -3.437,2.404 z m -57.025,9.886 0.328,0.888 0.149,0.564 c 0.144,0.436 0.306,0.873 0.491,1.301 l 0.043,0.088 -0.23,-0.284 C 2,37.107 1.928,36.984 1.849,36.857 1.769,36.728 1.706,36.57 1.643,36.431 1.512,36.134 1.428,35.822 1.376,35.503 Z m 52.285,3.753 c -0.191,0.16 -0.455,0.346 -0.688,0.447 l -0.154,0.067 c -0.056,0.02 -0.132,0.04 -0.183,0.063 l -0.053,0.107 0.107,0.053 c 0.123,-0.05 0.252,-0.084 0.374,-0.142 0.106,-0.05 0.206,-0.112 0.309,-0.162 0.053,-0.027 0.111,-0.071 0.159,-0.106 0.062,-0.044 0.128,-0.083 0.191,-0.126 0.154,-0.106 0.307,-0.244 0.452,-0.362 0.225,-0.18 0.452,-0.364 0.674,-0.545 0.091,-0.073 0.218,-0.147 0.318,-0.212 0.071,-0.049 0.087,-0.15 0.036,-0.219 -0.05,-0.07 -0.149,-0.086 -0.219,-0.037 -0.475,0.333 -0.876,0.798 -1.323,1.174 z m 4.291,-0.068 c -0.622,0.417 -1.249,0.832 -1.865,1.257 -0.99,0.681 -1.961,1.353 -2.811,2.207 -0.055,0.053 -0.057,0.143 -0.003,0.198 0.054,0.054 0.143,0.056 0.198,0.003 0.858,-0.87 1.874,-1.523 2.897,-2.18 0.278,-0.179 0.568,-0.349 0.841,-0.534 0.316,-0.213 0.635,-0.432 0.955,-0.637 0.086,-0.058 0.109,-0.177 0.05,-0.263 -0.058,-0.086 -0.177,-0.109 -0.262,-0.051 z m -2.376,0.364 c -0.193,0.148 -0.396,0.284 -0.588,0.433 -0.806,0.619 -1.611,1.2 -2.246,2.006 l 0.011,0.115 0.115,-0.011 c 0.263,-0.377 0.694,-0.74 1.037,-1.037 0.365,-0.316 0.784,-0.594 1.177,-0.874 0.35,-0.247 0.71,-0.494 1.065,-0.732 0.059,-0.042 0.072,-0.125 0.03,-0.183 -0.042,-0.06 -0.126,-0.073 -0.184,-0.031 -0.14,0.1 -0.28,0.209 -0.417,0.314 z m -42.148,3.804 c -0.629,0.393 -1.337,0.897 -1.611,1.617 -0.027,0.059 -0.001,0.129 0.057,0.156 0.059,0.028 0.128,0.002 0.156,-0.057 0.267,-0.699 0.917,-1.172 1.498,-1.598 0.181,-0.133 0.369,-0.268 0.554,-0.393 l 0.016,-0.075 -0.074,-0.015 c -0.2,0.116 -0.401,0.242 -0.596,0.365 z m 27.953,8.579 0.024,0.111 0.111,-0.023 c 0.172,-0.286 0.38,-0.55 0.588,-0.809 0.872,-1.078 1.937,-1.923 3.001,-2.8 0.069,-0.06 0.077,-0.166 0.017,-0.234 -0.059,-0.067 -0.164,-0.075 -0.233,-0.016 -1.24,1.108 -2.621,2.351 -3.508,3.771 z m -0.774,-2.806 c -0.206,0.177 -0.425,0.342 -0.623,0.527 l -0.007,0.098 0.099,0.007 c 0.141,-0.136 0.317,-0.272 0.471,-0.394 0.159,-0.126 0.318,-0.26 0.484,-0.376 0.283,-0.201 0.592,-0.459 0.9,-0.617 l 0.03,-0.14 -0.141,-0.031 c -0.416,0.279 -0.833,0.598 -1.213,0.926 z m 2.375,-0.61 c -0.197,0.148 -0.427,0.369 -0.601,0.546 -0.182,0.186 -0.371,0.367 -0.554,0.553 -0.118,0.121 -0.229,0.254 -0.346,0.376 -0.12,0.127 -0.243,0.247 -0.367,0.37 l -0.002,0.105 0.105,0.002 c 0.376,-0.374 0.762,-0.737 1.139,-1.112 0.2,-0.198 0.397,-0.382 0.615,-0.561 0.102,-0.083 0.265,-0.217 0.384,-0.275 0.051,-0.034 0.065,-0.104 0.032,-0.155 -0.034,-0.05 -0.104,-0.064 -0.154,-0.03 -0.081,0.061 -0.17,0.119 -0.251,0.181 z m 3.553,2.279 0.285,0.228 0.589,0.335 -0.125,0.037 -0.217,0.19 -0.411,-0.258 -0.287,-0.234 0.157,-0.131 z m 1.038,0.655 0.992,0.562 1.191,0.427 C 49.178,51.569 48.604,51.449 48.054,51.26 l -0.7,-0.292 0.107,-0.085 c 0.043,-0.036 0.068,-0.085 0.073,-0.136 z"
             stroke-miterlimit="79.8403193612775"
             id="path3"
             inkscape:connector-curvature="0"
             style="fill:#6730ec;fill-rule:evenodd;stroke:none;stroke-width:0.5;stroke-miterlimit:79.84031677;marker-start:none;marker-end:none" />
        </g>
      </g>
    </g>
    <g
       style="fill:#111111"
       inkscape:export-ydpi="409.60001"
       inkscape:export-xdpi="409.60001"
       inkscape:export-filename="/home/ransomware/Desktop/libdns.png"
       transform="matrix(1.0770785,0,0,1.0770785,-2.1541569,55.075071)"
       featurekey="nameFeature-0"
       id="SvgjsG1222">
      <path
         inkscape:connector-curvature="0"
         id="path12"
         d="m 6.612,39.2362 h 12.086 v 0.76379 H 2 v -28 h 4.6118 v 27.236 z m -0.764,0 3.91e-5,-26.472 h -3.0843 v 26.472 h 3.0843 z m 31.075,-26.4792 -5.0704,-3.9e-5 v 26.486 h 5.0704 v 0.7568 H 26.026 v -0.75676 h 5.0704 v -26.486 H 26.026 v -0.7568 H 36.923 Z M 58.75,26 c 2.877,0.96908 4.8888,3.7025 4.8888,6.8108 0,3.8877 -3.094,7.0564 -6.9408,7.1776 v 0.01168 H 44.25 v -0.75676 h 2.3388 v -26.486 H 44.25 v -0.7568 h 12.448 v 0.01168 c 0.406,0.01246 0.81124,0.05176 1.2068,0.13226 3.3226,0.67668 5.734,3.6396 5.734,7.0456 0,3.1644 -2.0518,5.8524 -4.8888,6.8104 z m -8.238,13.24308 v -26.486 h -3.1687 v 26.486 z M 51.2664,12.757 v 12.865 h 5.2057 c 3.5362,0 6.4128,-2.8856 6.4128,-6.4324 0,-3.0474 -2.1575,-5.6988 -5.13,-6.304 -0.4196,-0.08555 -0.85128,-0.12871 -1.283,-0.12871 h -5.2057 z m 5.2056,26.48608 c 3.5362,0 6.4128,-2.8856 6.4128,-6.4324 0,-3.0474 -2.1575,-5.6988 -5.13,-6.304 -0.4196,-0.08555 -0.85128,-0.12871 -1.283,-0.12871 h -5.2057 v 12.865 h 5.2057 z M 79.117,12.776 c -2.6479,0 -4.9692,1.4016 -6.2788,3.4977 l 14.441,10.881 v 4.3886 h -0.16566 l 0.16566,0.12445 v 0.18898 c 0,4.5008 -3.6618,8.162 -8.1624,8.162 -4.5006,0 -8.162,-3.6614 -8.162,-8.162 h 0.7568 c 0,4.0832 3.3219,7.4052 7.4052,7.4052 4.0212,0 7.3036,-3.2208 7.4036,-7.2176 l -15.566,-11.674 v -0.18898 c 0,-4.5008 3.6614,-8.162 8.162,-8.162 4.5006,0 8.1624,3.6614 8.1624,8.162 H 86.522 c 0,-4.0832 -3.3223,-7.4052 -7.4056,-7.4052 z M 86.523,27.532 72.467,16.941 c -0.45344,0.92752 -0.72604,1.9588 -0.75328,3.0524 l 14.809,11.107 v -3.568 z M 108.62,12.757 h -9.2435 v 12.335 h 9.2435 v 0.75676 h -9.2435 v 13.395 h 9.2435 v 0.7568 h -14 v -28 h 14 v 0.7568 z M 98.6196,39.24324 v -26.486 h -3.2429 v 26.486 z M 122.3026,28.82 V 12.798 h -3.2667 V 28.82 Z m 0.778,-16.023 v 16.022 h 2.4111 c 4.4176,0 8.0112,-3.5933 8.0112,-8.0112 0,-4.4179 -3.5933,-8.0112 -8.0112,-8.0112 h -2.4111 z m -4.0444,27.222375 -0.7778,3.9e-5 v -27.222 h -2.3333 v -0.77777 h 9.5667 c 4.8456,0 8.7888,3.9433 8.7888,8.7888 0,4.8455 -3.9433,8.7888 -8.7888,8.7888 h -1.8589 l 10.434,10.422 h -1.1045 l -10.43,-10.422 h -3.4961 v 10.422 z M 163.154,12.02 h 0.83223 l -10.994,28 -11.402,-28 h 0.84 l 7.6572,18.81 c 1.7617,-0.385 3.6244,-0.39277 5.3784,-0.0078 0.0933,0.01945 0.18277,0.04668 0.27609,0.06613 z m -10.177,25.9072 2.4772,-6.3076 c -0.0505,-0.01168 -0.10109,-0.02336 -0.15555,-0.03504 -1.6022,-0.35391 -3.3017,-0.35781 -4.9116,-0.02336 z m 29.216,-25.1702 -5.0704,-3.9e-5 v 26.486 h 5.0704 v 0.7568 h -10.897 v -0.75676 h 5.0704 v -26.486 h -5.0704 v -0.7568 h 10.897 z m 21.327,0 c -4.5712,0 -8.6092,2.3286 -10.99,5.8616 1.6127,2.0976 2.4978,4.6888 2.4978,7.3448 0,2.6732 -0.89368,5.2744 -2.5231,7.3788 2.3773,3.5548 6.4268,5.9012 11.015,5.9012 v 0.7568 c -7.7196,0 -14,-6.28 -14,-14 0,-7.72 6.2804,-14 14,-14 v 0.7568 z m -9.2484,13.207 c 0,-2.3932 -0.77348,-4.7264 -2.1754,-6.65 -1.1542,1.9643 -1.8192,4.2488 -1.8192,6.6864 0,2.4236 0.6576,4.6956 1.7994,6.652 1.4187,-1.9304 2.1953,-4.278 2.1953,-6.6884 z M 224.825,12.757 h -9.2435 v 12.335 h 9.2435 v 0.75676 h -9.2435 v 13.395 h 9.2435 v 0.7568 h -14 v -28 h 14 v 0.7568 z m -10.0004,26.48624 v -26.486 h -3.2429 v 26.486 z" />
    </g>
  </g>
</svg>
